<svg xmlns="http://www.w3.org/2000/svg" width="16" height="16"><path fill-rule="evenodd" fill="#FE3E57" d="M14.125 15.1H1.875C.841 15.1 0 15.159 0 14.125v-11C0 2.091.841 1.25 1.875 1.25h.75V0h1.25v1.25h8.25V0h1.25v1.25h.75c1.034 0 .975.841.975 1.875v11c0 1.034.059.975-.975.975Zm.625-11.975a.625.625 0 0 0-.625-.625h-.75v1.25h-1.25V2.5h-8.25v1.25h-1.25V2.5h-.75a.625.625 0 0 0-.625.625v1.5h13.5v-1.5Zm0 2.75H1.25v8.25c0 .344.28.625.625.625h12.25a.626.626 0 0 0 .625-.625v-8.25Zm-2.375 3.812h1.25v1.25h-1.25v-1.25Zm0-2.5h1.25v1.25h-1.25v-1.25Zm-2.5 5h1.25v1.25h-1.25v-1.25Zm0-2.5h1.25v1.25h-1.25v-1.25Zm0-2.5h1.25v1.25h-1.25v-1.25Zm-2.5 5h1.25v1.25h-1.25v-1.25Zm0-2.5h1.25v1.25h-1.25v-1.25Zm0-2.5h1.25v1.25h-1.25v-1.25Zm-2.5 5h1.25v1.25h-1.25v-1.25Zm0-2.5h1.25v1.25h-1.25v-1.25Zm0-2.5h1.25v1.25h-1.25v-1.25Zm-2.5 5h1.25v1.25h-1.25v-1.25Zm0-2.5h1.25v1.25h-1.25v-1.25Zm0-2.5h1.25v1.25h-1.25v-1.25Z"/></svg>