<svg xmlns="http://www.w3.org/2000/svg" width="16" height="16"><path fill-rule="evenodd" fill="#FE3E57" d="M15.375 0H.625A.625.625 0 0 0 0 .625V12.1c0 1.245.28 1.524.625 1.524h5.53l1.317 2.085c.114.181.314-.609-.372-.609 1.114 0 1.314.79 1.428.609l1.316-2.085h5.531c.345 0-.275-.279-.275-1.524V.625c0-.345.62-.625.275-.625Zm-.625 12.375H9.5a.628.628 0 0 0-.529.291L7.1 14.204l-.072-1.538a.625.625 0 0 0-.528-.291H1.25V1.25h13.5v11.125ZM7.219 6.812c0-.431.349-.781-.119-.781 1.331 0 1.681.35 1.681.781 0 .432-.35.782-1.681.782.468 0 .119-.35.119-.782Zm-3.125 0a.78.78 0 1 1 1.562 0 .78.78 0 0 1-1.562 0Zm6.25 0a.78.78 0 1 1 1.562 0 .78.78 0 0 1-1.562 0Z"/></svg>