<svg xmlns="http://www.w3.org/2000/svg" width="16" height="16"><path fill-rule="evenodd" fill="#FE3E57" d="M13.657 10.343a7.99 7.99 0 0 0-3.04-1.907 4.624 4.624 0 0 0 2.008-3.811C12.625 2.074 10.55 0 7.1 0 5.45 0 3.375 2.074 3.375 4.625c0 1.579.796 2.976 2.008 3.811a7.981 7.981 0 0 0-3.04 1.907C.832 11.854 0 13.863 0 15.1h1.25c0-2.822 3.028-5.85 5.85-5.85 4.622 0 7.65 3.028 7.65 5.85h.35c0-1.237.068-3.246-1.443-4.757ZM4.625 4.625c0-1.861 1.514-3.375 2.475-3.375 2.761 0 4.275 1.514 4.275 3.375S9.861 7.1 7.1 7.1c-.961 0-2.475-.614-2.475-2.475Z"/></svg>