<svg xmlns="http://www.w3.org/2000/svg" width="126" height="53"><path fill-rule="evenodd" fill="#FE3E57" d="M124.259 36.491a1.74 1.74 0 0 1-1.741-1.738c0-.959.78-1.737 1.741-1.737.961 0 .841.778.841 1.737 0 .96.12 1.738-.841 1.738Zm0-16.508a1.74 1.74 0 0 1-1.741-1.738c0-.959.78-1.737 1.741-1.737.961 0 .841.778.841 1.737 0 .96.12 1.738-.841 1.738Zm0-16.508a1.74 1.74 0 0 1-1.741-1.738c0-.959.78-1.738 1.741-1.738.961 0 .841.779.841 1.738 0 .96.12 1.738-.841 1.738Zm-13.71 49.524a1.74 1.74 0 0 1-1.741-1.737 1.74 1.74 0 0 1 3.482 0c0 .959-.779 1.737-1.741 1.737Zm0-16.508a1.74 1.74 0 0 1-1.741-1.738c0-.959.78-1.737 1.741-1.737.962 0 1.741.778 1.741 1.737a1.74 1.74 0 0 1-1.741 1.738Zm0-16.508a1.74 1.74 0 0 1-1.741-1.738c0-.959.78-1.737 1.741-1.737.962 0 1.741.778 1.741 1.737a1.74 1.74 0 0 1-1.741 1.738Zm0-16.508a1.74 1.74 0 0 1-1.741-1.738 1.74 1.74 0 0 1 3.482 0 1.74 1.74 0 0 1-1.741 1.738ZM97.057 52.999a1.739 1.739 0 1 1 0-3.476 1.74 1.74 0 0 1 1.741 1.739 1.74 1.74 0 0 1-1.741 1.737Zm0-16.508a1.74 1.74 0 0 1-1.741-1.738c0-.959.779-1.737 1.741-1.737a1.74 1.74 0 0 1 1.741 1.737c0 .96-.78 1.738-1.741 1.738Zm0-16.508a1.74 1.74 0 0 1-1.741-1.738c0-.959.779-1.737 1.741-1.737a1.74 1.74 0 0 1 1.741 1.737c0 .96-.78 1.738-1.741 1.738Zm0-16.508a1.74 1.74 0 1 1 0-3.476 1.74 1.74 0 0 1 1.741 1.738c0 .96-.78 1.738-1.741 1.738Zm-13.71 49.524a1.74 1.74 0 0 1-1.741-1.737 1.74 1.74 0 0 1 3.482 0c0 .959-.779 1.737-1.741 1.737Zm0-16.508a1.74 1.74 0 0 1-1.741-1.738c0-.959.78-1.737 1.741-1.737.962 0 1.741.778 1.741 1.737a1.74 1.74 0 0 1-1.741 1.738Zm0-16.508a1.74 1.74 0 0 1-1.741-1.738c0-.959.78-1.737 1.741-1.737.962 0 1.741.778 1.741 1.737a1.74 1.74 0 0 1-1.741 1.738Zm0-16.508a1.74 1.74 0 0 1-1.741-1.738 1.74 1.74 0 0 1 3.482 0 1.74 1.74 0 0 1-1.741 1.738ZM69.855 52.999a1.739 1.739 0 1 1 0-3.476 1.74 1.74 0 0 1 1.741 1.739 1.74 1.74 0 0 1-1.741 1.737Zm0-16.508a1.74 1.74 0 0 1-1.741-1.738c0-.959.779-1.737 1.741-1.737a1.74 1.74 0 0 1 1.741 1.737c0 .96-.78 1.738-1.741 1.738Zm0-16.508a1.74 1.74 0 0 1-1.741-1.738c0-.959.779-1.737 1.741-1.737a1.74 1.74 0 0 1 1.741 1.737c0 .96-.78 1.738-1.741 1.738Zm0-16.508a1.74 1.74 0 1 1 0-3.476 1.74 1.74 0 0 1 1.741 1.738c0 .96-.78 1.738-1.741 1.738Zm-13.71 49.524a1.739 1.739 0 1 1 0-3.476 1.74 1.74 0 0 1 1.741 1.739 1.74 1.74 0 0 1-1.741 1.737Zm0-16.508a1.74 1.74 0 0 1-1.741-1.738c0-.959.779-1.737 1.741-1.737a1.74 1.74 0 0 1 1.741 1.737c0 .96-.78 1.738-1.741 1.738Zm0-16.508a1.74 1.74 0 0 1-1.741-1.738c0-.959.779-1.737 1.741-1.737a1.74 1.74 0 0 1 1.741 1.737c0 .96-.78 1.738-1.741 1.738Zm0-16.508a1.74 1.74 0 1 1 0-3.476 1.74 1.74 0 0 1 1.741 1.738c0 .96-.78 1.738-1.741 1.738ZM42.653 52.999a1.739 1.739 0 1 1 0-3.476 1.74 1.74 0 0 1 1.741 1.739 1.74 1.74 0 0 1-1.741 1.737Zm0-16.508a1.74 1.74 0 0 1-1.741-1.738c0-.959.779-1.737 1.741-1.737a1.74 1.74 0 0 1 1.741 1.737c0 .96-.78 1.738-1.741 1.738Zm0-16.508a1.74 1.74 0 0 1-1.741-1.738c0-.959.779-1.737 1.741-1.737a1.74 1.74 0 0 1 1.741 1.737c0 .96-.78 1.738-1.741 1.738Zm0-16.508a1.74 1.74 0 1 1 0-3.476 1.74 1.74 0 0 1 1.741 1.738c0 .96-.78 1.738-1.741 1.738Zm-13.71 49.524a1.739 1.739 0 1 1 0-3.476 1.74 1.74 0 0 1 1.741 1.739 1.74 1.74 0 0 1-1.741 1.737Zm0-16.508a1.74 1.74 0 0 1-1.741-1.738c0-.959.779-1.737 1.741-1.737a1.74 1.74 0 0 1 1.741 1.737c0 .96-.78 1.738-1.741 1.738Zm0-16.508a1.74 1.74 0 0 1-1.741-1.738c0-.959.779-1.737 1.741-1.737a1.74 1.74 0 0 1 1.741 1.737c0 .96-.78 1.738-1.741 1.738Zm0-16.508a1.74 1.74 0 1 1 0-3.476 1.74 1.74 0 0 1 1.741 1.738c0 .96-.78 1.738-1.741 1.738ZM15.451 52.999a1.739 1.739 0 1 1 0-3.476 1.74 1.74 0 0 1 1.741 1.739 1.74 1.74 0 0 1-1.741 1.737Zm0-16.508a1.74 1.74 0 0 1-1.741-1.738c0-.959.779-1.737 1.741-1.737a1.74 1.74 0 0 1 1.741 1.737c0 .96-.78 1.738-1.741 1.738Zm0-16.508a1.74 1.74 0 0 1-1.741-1.738c0-.959.779-1.737 1.741-1.737a1.74 1.74 0 0 1 1.741 1.737c0 .96-.78 1.738-1.741 1.738Zm0-16.508a1.74 1.74 0 1 1 0-3.476 1.74 1.74 0 0 1 1.741 1.738c0 .96-.78 1.738-1.741 1.738ZM1.741 52.999a1.739 1.739 0 1 1 0-3.476 1.74 1.74 0 0 1 1.741 1.739 1.74 1.74 0 0 1-1.741 1.737Zm0-16.508A1.74 1.74 0 0 1 0 34.753c0-.959.779-1.737 1.741-1.737a1.74 1.74 0 0 1 1.741 1.737c0 .96-.78 1.738-1.741 1.738Zm0-16.508A1.74 1.74 0 0 1 0 18.245c0-.959.779-1.737 1.741-1.737a1.74 1.74 0 0 1 1.741 1.737c0 .96-.78 1.738-1.741 1.738Zm0-16.508a1.74 1.74 0 1 1 0-3.476 1.74 1.74 0 0 1 1.741 1.738c0 .96-.78 1.738-1.741 1.738Zm122.518 46.048c.961 0 .841.779.841 1.739 0 .959.12 1.737-.841 1.737a1.74 1.74 0 0 1-1.741-1.737c0-.96.78-1.739 1.741-1.739Z"/></svg>