<svg xmlns="http://www.w3.org/2000/svg" width="120" height="121"><path fill-rule="evenodd" fill="#FFB534" d="M119.859 64.67a.588.588 0 0 1-.585.551l-.041-.001a.592.592 0 0 1-.546-.631 60.73 60.73 0 0 0 .023-7.847.59.59 0 0 1 .549-.627.581.581 0 0 1 .622.554 61.755 61.755 0 0 1-.022 8.001Zm-.883-11.498a.589.589 0 0 1-.658-.509 60.508 60.508 0 0 0-.671-4.043.592.592 0 0 1 .458-.698.586.586 0 0 1 .692.462 60.38 60.38 0 0 1 .684 4.124.59.59 0 0 1-.505.664Zm-1.555-8.125a.588.588 0 0 1-.722-.412 58.9 58.9 0 0 0-1.22-3.91.587.587 0 1 1 1.107-.395c.46 1.312.878 2.654 1.245 3.989a.593.593 0 0 1-.41.728Zm-.09 31.23a.592.592 0 0 1 .405.73 59.459 59.459 0 0 1-1.268 3.982.588.588 0 0 1-.751.356.592.592 0 0 1-.353-.757c.456-1.277.874-2.59 1.243-3.903a.586.586 0 0 1 .724-.408Zm-2.565-39.054a.59.59 0 0 1-.772-.308 58.892 58.892 0 0 0-1.743-3.698.594.594 0 0 1 .251-.798.585.585 0 0 1 .791.253 61.038 61.038 0 0 1 1.779 3.773.594.594 0 0 1-.306.778Zm-.139 46.872c.296.133.43.482.3.781a60.486 60.486 0 0 1-1.806 3.769.588.588 0 0 1-.792.248.594.594 0 0 1-.246-.8 60.338 60.338 0 0 0 1.77-3.694.587.587 0 0 1 .774-.304Zm-3.565-54.249a.583.583 0 0 1-.806-.197 60.313 60.313 0 0 0-2.235-3.423.596.596 0 0 1 .139-.825.583.583 0 0 1 .818.141 60.181 60.181 0 0 1 2.28 3.49.595.595 0 0 1-.196.814Zm-3.947 35.373c-.017 0-.034 0-.051-.002a.59.59 0 0 1-.534-.64 48.597 48.597 0 0 0 .149-5.591.59.59 0 0 1 .568-.61.577.577 0 0 1 .605.573 49.335 49.335 0 0 1-.153 5.73.587.587 0 0 1-.584.54Zm-.084-9.792a.59.59 0 0 1-.652-.517 48.015 48.015 0 0 0-.65-4.035.587.587 0 1 1 1.149-.241c.28 1.358.504 2.75.667 4.136a.59.59 0 0 1-.514.657Zm-1.018-32.243a.586.586 0 0 1-.455-.217 60.741 60.741 0 0 0-2.68-3.083.594.594 0 0 1 .025-.836.585.585 0 0 1 .83.026 61.3 61.3 0 0 1 2.734 3.144.593.593 0 0 1-.454.966Zm-5.621-6.031a.585.585 0 0 1-.399-.158 59.124 59.124 0 0 0-3.076-2.684.595.595 0 0 1-.088-.832.584.584 0 0 1 .825-.089c1.07.87 2.126 1.791 3.137 2.737a.595.595 0 0 1 .031.836.583.583 0 0 1-.43.19Zm-2.1 15.349a.588.588 0 0 1-.821-.122 47.867 47.867 0 0 0-2.561-3.17.593.593 0 0 1 .049-.835.582.582 0 0 1 .828.049 49.03 49.03 0 0 1 2.625 3.249.596.596 0 0 1-.12.829Zm-2.627 22.627a.59.59 0 0 1-.581.677.589.589 0 0 1-.581-.504 35.332 35.332 0 0 0-.821-3.985.591.591 0 0 1 .414-.725.585.585 0 0 1 .719.417c.361 1.351.647 2.736.85 4.12Zm-1.664-43.176a.575.575 0 0 1-.336-.107 59.512 59.512 0 0 0-3.412-2.233.594.594 0 0 1-.201-.812.582.582 0 0 1 .805-.202 59.475 59.475 0 0 1 3.481 2.278c.265.187.33.556.144.824a.585.585 0 0 1-.481.252Zm-1.085 14.298a.582.582 0 0 1-.83.024 46.401 46.401 0 0 0-3.064-2.68.595.595 0 0 1-.094-.832.583.583 0 0 1 .824-.095 48.186 48.186 0 0 1 3.141 2.747.594.594 0 0 1 .023.836ZM86.961 7.688a.566.566 0 0 1-.267-.065 59.025 59.025 0 0 0-3.687-1.737.593.593 0 0 1-.31-.776.585.585 0 0 1 .77-.313 59.151 59.151 0 0 1 3.761 1.773.594.594 0 0 1 .256.795.587.587 0 0 1-.523.323Zm-.573 12.517c.27.181.344.548.166.82a.586.586 0 0 1-.814.167 46.698 46.698 0 0 0-3.476-2.107.595.595 0 0 1-.236-.803.587.587 0 0 1 .797-.237 48.158 48.158 0 0 1 3.563 2.16Zm-2.345 13.987a.58.58 0 0 1-.829.048 35.539 35.539 0 0 0-3.163-2.533.593.593 0 0 1-.142-.823.584.584 0 0 1 .818-.144 36.602 36.602 0 0 1 3.268 2.617.594.594 0 0 1 .048.835ZM79.4 4.445a.583.583 0 0 1-.192-.033 58.176 58.176 0 0 0-3.886-1.203.593.593 0 0 1 .305-1.143 59.93 59.93 0 0 1 3.964 1.227.593.593 0 0 1-.191 1.152Zm-4.196 10.256c1.312.443 2.618.948 3.883 1.504.297.131.433.48.304.779a.588.588 0 0 1-.773.306 46.039 46.039 0 0 0-3.786-1.466.593.593 0 0 1-.371-.749.589.589 0 0 1 .743-.374Zm2.212 14.622a.586.586 0 0 1-.796.237 34.636 34.636 0 0 0-3.655-1.731.594.594 0 0 1-.326-.77.584.584 0 0 1 .763-.329 36.014 36.014 0 0 1 3.779 1.791c.284.155.39.515.235.802Zm-5.941-27.03a.548.548 0 0 1-.113-.011 59.266 59.266 0 0 0-4.015-.648.589.589 0 0 1-.509-.66.587.587 0 0 1 .655-.514c1.365.172 2.743.395 4.094.661a.59.59 0 0 1 .463.694.588.588 0 0 1-.575.478Zm-.267 11.253a.592.592 0 0 1-.274 1.15 46.236 46.236 0 0 0-3.98-.78.591.591 0 0 1 .174-1.171c1.367.206 2.739.476 4.08.801ZM69.855 26.12a.587.587 0 0 1-.72.416 34.79 34.79 0 0 0-3.951-.834.59.59 0 0 1 .174-1.17c1.373.207 2.748.497 4.085.862.313.085.497.41.412.726ZM63.331 1.268l-.033-.001a59.285 59.285 0 0 0-4.065-.087h-.008a.59.59 0 0 1-.587-.585.59.59 0 0 1 .58-.599 60.262 60.262 0 0 1 4.145.09.589.589 0 0 1 .553.623.589.589 0 0 1-.585.559Zm-.337 11.038a.59.59 0 0 1 .55.627.59.59 0 0 1-.586.556l-.036-.001a47.314 47.314 0 0 0-4.055-.078.6.6 0 0 1-.601-.578.59.59 0 0 1 .573-.605 48.415 48.415 0 0 1 4.155.079Zm-1.791 11.846a.59.59 0 0 1 .566.612.585.585 0 0 1-.605.571c-.394-.013-.771-.008-1.186-.02a35.24 35.24 0 0 0-2.9.119.59.59 0 0 1-.585-.544.59.59 0 0 1 .538-.637 35.773 35.773 0 0 1 2.947-.121c.424-.009.818.006 1.225.02ZM55.17 1.371c-1.348.11-2.707.269-4.038.472a.588.588 0 0 1-.668-.497.592.592 0 0 1 .493-.674 59.496 59.496 0 0 1 4.118-.48.591.591 0 0 1 .095 1.179Zm-.477 11.133a.591.591 0 0 1 .129 1.177 46.678 46.678 0 0 0-4.008.623.587.587 0 0 1-.69-.465.59.59 0 0 1 .461-.696 48.165 48.165 0 0 1 4.108-.639ZM53.589 25.3a.59.59 0 0 1-.461.695 34.55 34.55 0 0 0-3.905 1.027.588.588 0 0 1-.74-.381.593.593 0 0 1 .378-.745 35.516 35.516 0 0 1 4.038-1.061.589.589 0 0 1 .69.465ZM47.136 2.595a57.59 57.59 0 0 0-3.935 1.03.588.588 0 0 1-.73-.399.593.593 0 0 1 .395-.736 59.477 59.477 0 0 1 4.014-1.05.592.592 0 0 1 .256 1.155Zm-.589 11.545a.593.593 0 0 1 .329 1.137 45.7 45.7 0 0 0-3.838 1.316.585.585 0 0 1-.76-.337.592.592 0 0 1 .333-.766 47.818 47.818 0 0 1 3.936-1.35Zm-.797 13.575a.594.594 0 0 1-.288.785 34.54 34.54 0 0 0-3.564 1.907.583.583 0 0 1-.807-.199.594.594 0 0 1 .197-.812 36.098 36.098 0 0 1 3.684-1.973.587.587 0 0 1 .778.292ZM39.346 4.929a57.615 57.615 0 0 0-3.75 1.568.586.586 0 0 1-.778-.293.595.595 0 0 1 .291-.784 59.496 59.496 0 0 1 3.826-1.6.584.584 0 0 1 .755.347.593.593 0 0 1-.344.762Zm-.669 26.957a.596.596 0 0 1-.103.831 35.233 35.233 0 0 0-3.037 2.681.583.583 0 0 1-.83-.007.595.595 0 0 1 .006-.837 36.633 36.633 0 0 1 3.14-2.771.584.584 0 0 1 .824.103Zm-2.331 54.478a.594.594 0 0 1-.397 1.027.582.582 0 0 1-.398-.157 36.463 36.463 0 0 1-2.9-3.024.594.594 0 0 1 .061-.834.582.582 0 0 1 .828.063 35.696 35.696 0 0 0 2.806 2.925Zm-5.874-44.64c-.111.179-.302-.624-.496-.624-.108 0-.216.87-.313.808a.594.594 0 0 1-.183-.816 36.356 36.356 0 0 1 2.43-3.421.583.583 0 0 1 .825-.089.595.595 0 0 1 .089.832 35.26 35.26 0 0 0-2.352 3.31Zm-1.233-16.687a.582.582 0 0 1-.828-.055.595.595 0 0 1 .055-.835 47.985 47.985 0 0 1 3.244-2.621.583.583 0 0 1 .82.127.594.594 0 0 1-.127.827 47.307 47.307 0 0 0-3.164 2.557Zm2.723-16.712a58.516 58.516 0 0 0-3.503 2.077.585.585 0 0 1-.81-.182.595.595 0 0 1 .18-.817 61.19 61.19 0 0 1 3.572-2.119.585.585 0 0 1 .796.238.595.595 0 0 1-.235.803Zm-3.721 36.171a.595.595 0 0 1 .275.79 35.302 35.302 0 0 0-1.534 3.767.588.588 0 0 1-.745.367.592.592 0 0 1-.364-.752c.45-1.32.983-2.631 1.585-3.895a.583.583 0 0 1 .783-.277Zm-4.618-13.568a.584.584 0 0 1-.825.089.597.597 0 0 1-.089-.833 49.385 49.385 0 0 1 2.749-3.144.583.583 0 0 1 .83-.016c.234.226.241.6.017.836a47.283 47.283 0 0 0-2.682 3.068ZM21.92 15.263a.583.583 0 0 1-.827-.068.594.594 0 0 1 .067-.833c1.05-.9 2.144-1.773 3.251-2.595a.582.582 0 0 1 .82.124.594.594 0 0 1-.123.827 59.309 59.309 0 0 0-3.188 2.545Zm-.707 18.955a47.682 47.682 0 0 0-2.117 3.488.587.587 0 1 1-1.027-.574 48.813 48.813 0 0 1 2.171-3.575.585.585 0 0 1 .815-.16c.269.182.34.55.158.821Zm-5.112-13.234a.586.586 0 0 1-.829.047.594.594 0 0 1-.047-.835 60.527 60.527 0 0 1 2.868-3.02.584.584 0 0 1 .83.01.595.595 0 0 1-.01.836 59.957 59.957 0 0 0-2.812 2.962Zm.888 19.601a.595.595 0 0 1 .298.782 46.954 46.954 0 0 0-1.486 3.805.588.588 0 0 1-.746.368.594.594 0 0 1-.364-.752 48.481 48.481 0 0 1 1.523-3.903.587.587 0 0 1 .775-.3Zm-2.337 8.507a47.402 47.402 0 0 0-.806 4.006.589.589 0 0 1-.671.492.59.59 0 0 1-.488-.676 49.02 49.02 0 0 1 .825-4.108.587.587 0 1 1 1.14.286Zm-3.539-21.634a.587.587 0 0 1-.814.162.594.594 0 0 1-.16-.821 60.702 60.702 0 0 1 2.43-3.39.583.583 0 0 1 .824-.104c.256.2.303.572.104.83a59.08 59.08 0 0 0-2.384 3.323Zm-.208 65.756a60.314 60.314 0 0 0 2.361 3.337.593.593 0 0 1-.465.952.586.586 0 0 1-.467-.232 62.137 62.137 0 0 1-2.407-3.402.596.596 0 0 1 .165-.821.584.584 0 0 1 .813.166Zm-3.85-58.649a.584.584 0 0 1-.784.273c-.292-.143-.413-.498-1.171-.791 1.503-1.249 2.157-2.493 2.844-3.697a.586.586 0 0 1 .802-.218.594.594 0 0 1 .216.808 59.845 59.845 0 0 0-1.907 3.625Zm-.157 51.528a60.513 60.513 0 0 0 1.882 3.631.593.593 0 0 1-.51.883.583.583 0 0 1-.511-.3 60.551 60.551 0 0 1-1.919-3.702.595.595 0 0 1 .275-.79.584.584 0 0 1 .783.278ZM4.012 42.172a.588.588 0 0 1-.739.38.592.592 0 0 1-.378-.745 61.556 61.556 0 0 1 1.418-3.935.586.586 0 1 1 1.089.442 59.978 59.978 0 0 0-1.39 3.858Zm-1.119 3.941a59.19 59.19 0 0 0-.845 4.009.588.588 0 1 1-1.156-.206c.239-1.368.529-2.743.861-4.09a.583.583 0 0 1 .711-.43.592.592 0 0 1 .429.717ZM1.481 54.18a61.68 61.68 0 0 0-.289 4.089.588.588 0 0 1-.585.57l-.023-.001a.588.588 0 0 1-.564-.613c.051-1.39.149-2.793.294-4.169a.591.591 0 0 1 .645-.527.592.592 0 0 1 .522.651Zm-.906 7.616a.585.585 0 0 1 .605.573c.042 1.359.131 2.735.265 4.09a.591.591 0 0 1-.525.648c-.02.002-.04.002-.059.002a.589.589 0 0 1-.584-.532 61.307 61.307 0 0 1-.27-4.172.589.589 0 0 1 .568-.609Zm.736 8.241a.586.586 0 0 1 .677.484 60.57 60.57 0 0 0 .821 4.014.592.592 0 0 1-.57.731.586.586 0 0 1-.57-.452 60.45 60.45 0 0 1-.838-4.094.592.592 0 0 1 .48-.683Zm1.857 8.06a.588.588 0 0 1 .738.384c.41 1.3.869 2.599 1.366 3.861a.593.593 0 0 1-.546.811.59.59 0 0 1-.546-.374 61.046 61.046 0 0 1-1.393-3.938.594.594 0 0 1 .381-.744Zm9.534-16.249h-.009a.59.59 0 0 1-.587-.582 49.542 49.542 0 0 1 .113-4.188c.022-.327.3-.57.625-.55a.59.59 0 0 1 .545.632 48.736 48.736 0 0 0-.109 4.087.59.59 0 0 1-.578.601Zm.248 7.746a49.355 49.355 0 0 1-.601-4.145.592.592 0 0 1 .525-.65.59.59 0 0 1 .643.528c.138 1.356.335 2.717.586 4.046a.591.591 0 0 1-.577.702.589.589 0 0 1-.576-.481Zm1.361 3.348a.592.592 0 0 1 .725.409 47.152 47.152 0 0 0 1.274 3.88.594.594 0 0 1-.549.803.588.588 0 0 1-.548-.382 48.29 48.29 0 0 1-1.306-3.979c-.089-.314-.807-.642.404-.731Zm1.538 26.774a60.397 60.397 0 0 0 2.793 2.979c.231.23.233.605.005.837a.584.584 0 0 1-.83.005 61.428 61.428 0 0 1-2.849-3.038.597.597 0 0 1 .052-.836.585.585 0 0 1 .829.053Zm1.282-19.007a.585.585 0 0 1 .784.275 47.546 47.546 0 0 0 1.924 3.598.594.594 0 0 1-.204.811.586.586 0 0 1-.805-.205 49.01 49.01 0 0 1-1.972-3.689.594.594 0 0 1 .273-.79Zm4.501 24.766a59.84 59.84 0 0 0 3.173 2.566c.26.196.313.567.119.828a.582.582 0 0 1-.821.12 60.428 60.428 0 0 1-3.236-2.618.594.594 0 0 1-.062-.834.582.582 0 0 1 .827-.062Zm3.814-53.205c.317.07.518.385.449.704a35.606 35.606 0 0 0-.629 4.02.589.589 0 0 1-.583.534l-.059-.003a.59.59 0 0 1-.526-.647 36.88 36.88 0 0 1 .65-4.156.587.587 0 0 1 .698-.452Zm-.933 39.773a.583.583 0 0 1-.827-.062 48.634 48.634 0 0 1-2.575-3.291.595.595 0 0 1 .133-.826.585.585 0 0 1 .82.134 47.711 47.711 0 0 0 2.511 3.211.594.594 0 0 1-.062.834Zm-.008-31.564h.009a.59.59 0 0 1 .587.583c.02 1.354.119 2.719.294 4.058a.591.591 0 0 1-.583.668.588.588 0 0 1-.581-.514 36.944 36.944 0 0 1-.304-4.194.59.59 0 0 1 .578-.601Zm.934 8.209a.587.587 0 0 1 .713.429c.329 1.314.737 2.62 1.213 3.882a.591.591 0 0 1-.548.802.587.587 0 0 1-.549-.381 36.653 36.653 0 0 1-1.254-4.013.592.592 0 0 1 .425-.719Zm1.914 25.501a46.824 46.824 0 0 0 3.021 2.729.594.594 0 0 1-.373 1.049.583.583 0 0 1-.372-.134 48.617 48.617 0 0 1-3.097-2.797.595.595 0 0 1-.009-.837.585.585 0 0 1 .83-.01Zm2.761-13.318a36.793 36.793 0 0 1-2.137-3.612.597.597 0 0 1 .25-.799.585.585 0 0 1 .791.252 35.638 35.638 0 0 0 2.068 3.495.593.593 0 0 1-.485.923.588.588 0 0 1-.487-.259Zm-1.967 29.51a59.524 59.524 0 0 0 3.493 2.103.594.594 0 0 1-.284 1.11.59.59 0 0 1-.282-.073 61.056 61.056 0 0 1-3.564-2.145.596.596 0 0 1-.175-.818.585.585 0 0 1 .812-.177Zm5.471-11.008a46.716 46.716 0 0 0 3.442 2.163.594.594 0 0 1-.289 1.107.582.582 0 0 1-.288-.077 47.853 47.853 0 0 1-3.529-2.217.595.595 0 0 1-.153-.822.585.585 0 0 1 .817-.154Zm1.652 14.965a58.484 58.484 0 0 0 3.75 1.595.595.595 0 0 1 .34.764.588.588 0 0 1-.758.342 59.8 59.8 0 0 1-3.826-1.627.595.595 0 0 1-.286-.786.584.584 0 0 1 .78-.288Zm.505-94.129a.586.586 0 0 1-.807-.199.595.595 0 0 1 .197-.813 47.895 47.895 0 0 1 3.643-2.017.584.584 0 0 1 .786.268.594.594 0 0 1-.266.793 46.238 46.238 0 0 0-3.553 1.968Zm7.312 71.747a.586.586 0 0 1-.8.224 36.097 36.097 0 0 1-3.51-2.277.594.594 0 0 1-.129-.826.583.583 0 0 1 .82-.13 35.365 35.365 0 0 0 3.396 2.203.595.595 0 0 1 .223.806Zm-2.411 11.433a46.58 46.58 0 0 0 3.763 1.528.593.593 0 0 1-.391 1.117 47.7 47.7 0 0 1-3.858-1.568.593.593 0 0 1-.291-.783.584.584 0 0 1 .777-.294Zm2.197 13.873a58.74 58.74 0 0 0 3.929 1.053.592.592 0 0 1-.262 1.153 59.137 59.137 0 0 1-4.008-1.074.592.592 0 0 1 .341-1.132Zm7.264-21.805a.622.622 0 0 1-.163-.023 35.7 35.7 0 0 1-3.937-1.401.593.593 0 0 1-.313-.775.585.585 0 0 1 .768-.317c1.237.524 2.518.98 3.808 1.355a.593.593 0 0 1-.163 1.161Zm-1.819 10.651a46.59 46.59 0 0 0 3.967.844.592.592 0 0 1-.192 1.167 47.311 47.311 0 0 1-4.067-.865.592.592 0 0 1 .292-1.146Zm2.476 12.983c1.333.21 2.691.377 4.036.495a.59.59 0 0 1 .533.64.588.588 0 0 1-.584.54c-.017 0-.034 0-.051-.002a59.878 59.878 0 0 1-4.116-.504.592.592 0 0 1 .182-1.169Zm7.4-22.282a35.698 35.698 0 0 1-4.149-.448.59.59 0 0 1-.483-.68.582.582 0 0 1 .675-.487c1.32.221 2.67.367 4.014.433a.59.59 0 0 1 .558.62.59.59 0 0 1-.586.563l-.029-.001Zm-1.884 10.637c1.215.095 2.453.144 3.679.144l.374-.002h.004a.59.59 0 0 1 .587.587.59.59 0 0 1-.583.596l-.381.002c-1.257 0-2.526-.05-3.772-.147a.591.591 0 0 1-.539-.636.579.579 0 0 1 .631-.544Zm2.58 12.353c1.348.026 2.718.005 4.067-.062a.582.582 0 0 1 .615.561.591.591 0 0 1-.557.621 62.231 62.231 0 0 1-4.147.065.593.593 0 0 1 .022-1.185Zm3.476-23.023-.039.002a.59.59 0 0 1-.586-.553.59.59 0 0 1 .548-.63 35.065 35.065 0 0 0 4.006-.498.592.592 0 0 1 .211 1.165c-1.36.25-2.753.423-4.14.514Zm2.046 10.606a46.8 46.8 0 0 0 4.017-.559.592.592 0 0 1 .211 1.164 47.627 47.627 0 0 1-4.173.575c-.3 0-.556-.23-.584-.536a.59.59 0 0 1 .529-.644Zm2.596 12.011a58.756 58.756 0 0 0 4.018-.624.584.584 0 0 1 .686.471.592.592 0 0 1-.467.692c-1.35.258-2.729.472-4.099.637a.59.59 0 0 1-.652-.518.59.59 0 0 1 .514-.658Zm3.553-24.127a.588.588 0 0 1-.733-.392.592.592 0 0 1 .39-.739 34.984 34.984 0 0 0 3.784-1.416.583.583 0 0 1 .773.304.593.593 0 0 1-.301.779 35.871 35.871 0 0 1-3.913 1.464Zm1.822 10.648a46.052 46.052 0 0 0 3.859-1.253.588.588 0 0 1 .755.349.593.593 0 0 1-.347.76 47.525 47.525 0 0 1-3.956 1.286.587.587 0 0 1-.721-.414.592.592 0 0 1 .41-.728Zm2.608 11.951a57.9 57.9 0 0 0 3.893-1.18.587.587 0 0 1 .745.371.593.593 0 0 1-.368.75 59.495 59.495 0 0 1-3.972 1.204.586.586 0 0 1-.716-.422.59.59 0 0 1 .418-.723Zm2.902-25.893a.588.588 0 0 1-.507-.293.594.594 0 0 1 .21-.809 34.982 34.982 0 0 0 3.359-2.256.582.582 0 0 1 .822.117.593.593 0 0 1-.116.828 36.023 36.023 0 0 1-3.472 2.331.57.57 0 0 1-.296.082Zm2.083 11.101a46.635 46.635 0 0 0 3.584-1.91.585.585 0 0 1 .803.212.593.593 0 0 1-.21.809 47.757 47.757 0 0 1-3.674 1.959.587.587 0 0 1-.782-.282.594.594 0 0 1 .279-.788Zm2.705 12.165a58.377 58.377 0 0 0 3.69-1.711.585.585 0 0 1 .788.264.594.594 0 0 1-.26.794 60.186 60.186 0 0 1-3.765 1.745.585.585 0 0 1-.768-.318.593.593 0 0 1 .315-.774Zm4.286-16.292a47.231 47.231 0 0 0 3.204-2.506.584.584 0 0 1 .827.069c.21.25.179.623-.068.834a48.8 48.8 0 0 1-3.285 2.569.584.584 0 0 1-.817-.141.594.594 0 0 1 .139-.825Zm2.969 12.616a58.28 58.28 0 0 0 3.423-2.208.584.584 0 0 1 .817.15.596.596 0 0 1-.15.824 60.106 60.106 0 0 1-3.491 2.253.584.584 0 0 1-.804-.208.596.596 0 0 1 .205-.811Zm6.77-20.997c.249.21.283.582.075.833a48.685 48.685 0 0 1-2.798 3.1.586.586 0 0 1-.83.003.595.595 0 0 1-.004-.837 47.203 47.203 0 0 0 2.731-3.024.583.583 0 0 1 .826-.075Zm-2.043-22.439a.59.59 0 0 1 .437.711 36.364 36.364 0 0 1-1.19 4.035.589.589 0 0 1-.752.355.593.593 0 0 1-.352-.758 35.17 35.17 0 0 0 1.151-3.902.587.587 0 0 1 .706-.441Zm-3.731-25.155a.585.585 0 0 1 .796.238 36.496 36.496 0 0 1 1.768 3.808.592.592 0 0 1-.545.812.588.588 0 0 1-.545-.373 35.122 35.122 0 0 0-1.711-3.683.594.594 0 0 1 .237-.802Zm1.069 32.975c.29.146.407.501.262.794a36.578 36.578 0 0 1-2.081 3.648.584.584 0 0 1-.812.171.594.594 0 0 1-.17-.819 35.334 35.334 0 0 0 2.013-3.53.584.584 0 0 1 .788-.264Zm-4.378 6.99a.594.594 0 0 1 .075.833 36.837 36.837 0 0 1-2.853 3.071.586.586 0 0 1-.83-.022.594.594 0 0 1 .021-.836c.972-.932 1.9-1.931 2.761-2.971a.583.583 0 0 1 .826-.075Zm-.68-46.602a36.372 36.372 0 0 1 2.589 3.299.593.593 0 0 1-.479.931.583.583 0 0 1-.481-.252 35.61 35.61 0 0 0-2.506-3.192.595.595 0 0 1 .048-.834.583.583 0 0 1 .829.048Zm8.488 22.411c.312-.019.595.246.605.573a37.477 37.477 0 0 1-.219 5.374.589.589 0 0 1-.65.521.591.591 0 0 1-.516-.655 36.278 36.278 0 0 0 .212-5.202.59.59 0 0 1 .568-.611Zm4.283 45.504a.585.585 0 0 1 .83.037.594.594 0 0 1-.037.836 60.306 60.306 0 0 1-3.153 2.716.586.586 0 0 1-.824-.094.596.596 0 0 1 .093-.832 59.242 59.242 0 0 0 3.091-2.663Zm-.893-15.929a.58.58 0 0 1-.335-.106.595.595 0 0 1-.146-.824 47.668 47.668 0 0 0 2.173-3.454.586.586 0 0 1 .802-.218.594.594 0 0 1 .216.808 48.385 48.385 0 0 1-2.228 3.541.586.586 0 0 1-.482.253Zm1.12-53.374a.585.585 0 0 1 .808.192 48.727 48.727 0 0 1 2.031 3.657.594.594 0 0 1-.524.858.586.586 0 0 1-.525-.326 47.98 47.98 0 0 0-1.98-3.567.595.595 0 0 1 .19-.814Zm3.986 41.579a.586.586 0 0 1 .752-.355c.304.111.462.45.351.758a48.607 48.607 0 0 1-1.585 3.877.587.587 0 0 1-.78.287.595.595 0 0 1-.285-.786 47.639 47.639 0 0 0 1.547-3.781Zm1.392 21.787a.585.585 0 0 1 .826-.078c.25.209.284.582.077.834a61.476 61.476 0 0 1-2.754 3.127.584.584 0 0 1-.83.02.596.596 0 0 1-.021-.837 58.778 58.778 0 0 0 2.702-3.066Zm-.588-51.399a47.41 47.41 0 0 0-1.336-3.86.593.593 0 0 1 .328-.769.584.584 0 0 1 .762.33 48.164 48.164 0 0 1 1.37 3.958.591.591 0 0 1-.562.762.588.588 0 0 1-.562-.421Zm1.956 21.237a.59.59 0 0 1 .477.684 48.552 48.552 0 0 1-.891 4.094.588.588 0 0 1-.718.42.592.592 0 0 1-.417-.724c.345-1.308.638-2.651.87-3.993a.587.587 0 0 1 .679-.481Zm3.375 23.505a.584.584 0 0 1 .809-.192c.275.172.36.536.19.815a61.89 61.89 0 0 1-2.303 3.479.586.586 0 0 1-.819.136.595.595 0 0 1-.135-.826 59.871 59.871 0 0 0 2.258-3.412Zm7.516-18.95c.276-1.333.509-2.691.694-4.038a.583.583 0 0 1 .661-.506.59.59 0 0 1 .501.668 60.641 60.641 0 0 1-.708 4.118.587.587 0 0 1-.694.459.592.592 0 0 1-.454-.701Z"/></svg>