<svg xmlns="http://www.w3.org/2000/svg" width="20" height="21"><path fill-rule="evenodd" fill="#FE3E57" d="M17.071 17.622c-1.889 1.888-4.4 2.928-7.971 2.928-1.771 0-4.282-1.04-6.171-2.928A9.938 9.938 0 0 1 0 10.55a9.934 9.934 0 0 1 2.929-7.071C4.818 1.591 7.329.551 9.1.551c3.571 0 6.082 1.04 7.971 2.928 1.889 1.889 2.029 4.4 2.029 7.071 0 2.671-.14 5.182-2.029 7.072ZM9.1 1.722c-3.968 0-7.928 3.961-7.928 8.828 0 4.868 3.96 8.828 7.928 8.828 5.768 0 9.728-3.96 9.728-8.828 0-4.867-3.96-8.828-9.728-8.828Zm.089 12.037a.585.585 0 0 1-.829 0l-3.138-3.138a.586.586 0 1 1 .829-.829l2.724 2.724 5.174-5.174a.585.585 0 1 1 .828.828l-5.588 5.589Z"/></svg>