<svg xmlns="http://www.w3.org/2000/svg" width="16" height="16"><path fill-rule="evenodd" fill="#FE3E57" d="M14.125 15.999H1.875A1.877 1.877 0 0 1 0 14.124v-11C0 2.09.841 1.249 1.875 1.249h.75v-1.25h1.25v1.25h8.25v-1.25h1.25v1.25h.75c1.034 0 .975.841.975 1.875v11c0 1.034.059 1.875-.975 1.875Zm.625-12.875a.626.626 0 0 0-.625-.625h-.75v1.25h-1.25v-1.25h-8.25v1.25h-1.25v-1.25h-.75a.626.626 0 0 0-.625.625v1.5h13.5v-1.5Zm0 2.75H1.25v8.25c0 .345.28.625.625.625h12.25c.345 0 .625-.28.625-.625v-8.25Zm-2.375 3.813h1.25v1.25h-1.25v-1.25Zm0-2.5h1.25v1.25h-1.25v-1.25Zm-2.5 5h1.25v1.25h-1.25v-1.25Zm0-2.5h1.25v1.25h-1.25v-1.25Zm0-2.5h1.25v1.25h-1.25v-1.25Zm-2.5 5h1.25v1.25h-1.25v-1.25Zm0-2.5h1.25v1.25h-1.25v-1.25Zm0-2.5h1.25v1.25h-1.25v-1.25Zm-2.5 5h1.25v1.25h-1.25v-1.25Zm0-2.5h1.25v1.25h-1.25v-1.25Zm0-2.5h1.25v1.25h-1.25v-1.25Zm-2.5 5h1.25v1.25h-1.25v-1.25Zm0-2.5h1.25v1.25h-1.25v-1.25Zm0-2.5h1.25v1.25h-1.25v-1.25Z"/></svg>