<svg xmlns="http://www.w3.org/2000/svg" width="18" height="20"><path fill-rule="evenodd" fill="#FE3E57" d="m17.818 18.1-5.57-4.543 5.751-5.619v10.308c0 .271-.068.524-.181-.146ZM15.599 5.108l1.8 1.758-1.8 1.759V5.108Zm-8.751 7.863L3.6 9.797V.638c0-.354.294-.641.656-.641h9.374a.76.76 0 0 1 .769.751v9.049l-3.248 3.174H6.848ZM8.1 3.592c2.554 0 3.899 1.315 3.899 2.931 0 .775-1.2.775-1.2 0 0-.97-.807-1.759-2.699-1.759-.093 0-.9.789-.9 1.759 0 .969.807 1.758.9 1.758 1.362 0 1.78-.176 2.099-.457 1.166 1.029 3 .206 3-1.301 0-2.263-1.884-4.103-5.099-4.103-1.416 0-3.3 1.84-3.3 4.103 0 1.405.725 2.697 1.939 3.457 1.274.797 2.801.841 4.176.222.723-.324.214-1.389-.501-1.064-1.035.464-2.137.411-3.028-.145C6.518 8.449 5.1 7.526 5.1 6.523c0-1.616 2.245-2.931 3-2.931Zm0 3.517c.569 0 .3-.263.3-.586 0-.324.269-.586-.3-.586 1.215 0 1.469.242 1.491.545-.066.349-.176.627-1.491.627ZM2.4 5.108v3.517L.6 6.866l1.8-1.758ZM.18 18.1c-.112.67-.18.417-.18.146V7.938l5.751 5.619L.18 18.1Zm10.971-3.957 5.819 5.686a1.824 1.824 0 0 1-.771.176H1.8c-.277 0-.536-.067-.771-.176l5.819-5.686h4.303Z"/></svg>